{
  "accessors": [
    {
      "bufferView": 2,
      "componentType": 5126,
      "count": 855,
      "max": [
        60.688961029052734,
        39.08802032470703,
        36.50476837158203
      ],
      "min": [
        -60.6889533996582,
        -22.696697235107422,
        -85.20912170410156
      ],
      "type": "VEC3"
    },
    {
      "bufferView": 2,
      "byteOffset": 10260,
      "componentType": 5126,
      "count": 855,
      "max": [
        0.999374508857727,
        0.9989451169967651,
        0.9954960346221924
      ],
      "min": [
        -0.999374508857727,
        -0.9995137453079224,
        -0.9996945858001709
      ],
      "type": "VEC3"
    },
    {
      "bufferView": 3,
      "componentType": 5126,
      "count": 855,
      "max": [
        0.990749180316925,
        0.9999714493751526,
        0.986465334892273,
        1.0
      ],
      "min": [
        -0.9999424815177917,
        -0.9881722331047058,
        -0.9864493608474731,
        1.0
      ],
      "type": "VEC4"
    },
    {
      "bufferView": 1,
      "componentType": 5126,
      "count": 855,
      "max": [
        0.9968613982200623,
        0.995326578617096
      ],
      "min": [
        0.011945724487304688,
        0.009552180767059326
      ],
      "type": "VEC2"
    },
    {
      "bufferView": 0,
      "componentType": 5125,
      "count": 3042,
      "type": "SCALAR"
    },
    {
      "bufferView": 2,
      "byteOffset": 20520,
      "componentType": 5126,
      "count": 2449,
      "max": [
        65.88735961914063,
        41.62050247192383,
        43.32185363769531
      ],
      "min": [
        -65.8093032836914,
        -23.09046173095703,
        -98.84815216064453
      ],
      "type": "VEC3"
    },
    {
      "bufferView": 2,
      "byteOffset": 49908,
      "componentType": 5126,
      "count": 2449,
      "max": [
        0.9936569333076477,
        0.9953393340110779,
        0.9982529878616333
      ],
      "min": [
        -0.9972918033599854,
        -0.9994333386421204,
        -0.9968068599700928
      ],
      "type": "VEC3"
    },
    {
      "bufferView": 3,
      "byteOffset": 13680,
      "componentType": 5126,
      "count": 2449,
      "max": [
        0.9996742606163025,
        0.9999463558197021,
        0.9976606369018555,
        1.0
      ],
      "min": [
        -0.9999309778213501,
        -0.998408854007721,
        -0.9996595978736877,
        1.0
      ],
      "type": "VEC4"
    },
    {
      "bufferView": 1,
      "byteOffset": 6840,
      "componentType": 5126,
      "count": 2449,
      "max": [
        0.9838952422142029,
        0.9834229946136475
      ],
      "min": [
        0.01014740765094757,
        0.0
      ],
      "type": "VEC2"
    },
    {
      "bufferView": 0,
      "byteOffset": 12168,
      "componentType": 5125,
      "count": 4308,
      "type": "SCALAR"
    },
    {
      "bufferView": 4,
      "componentType": 5126,
      "count": 81,
      "max": [
        2.6666667461395264
      ],
      "min": [
        0.0
      ],
      "type": "SCALAR"
    },
    {
      "bufferView": 5,
      "componentType": 5126,
      "count": 81,
      "max": [
        -0.125837504863739,
        106.88121032714844,
        1.3968696594238281
      ],
      "min": [
        -0.125837504863739,
        100.92884063720703,
        1.3968696594238281
      ],
      "type": "VEC3"
    }
  ],
  "animations": [
    {
      "channels": [
        {
          "sampler": 0,
          "target": {
            "node": 4,
            "path": "translation"
          }
        }
      ],
      "name": "Take 001",
      "samplers": [
        {
          "input": 10,
          "interpolation": "LINEAR",
          "output": 11
        }
      ]
    }
  ],
  "asset": {
    "extras": {
      "author": "guillaume.biju-duval (https://sketchfab.com/guillaume.biju-duval)",
      "license": "CC-BY-4.0 (http://creativecommons.org/licenses/by/4.0/)",
      "source": "https://sketchfab.com/3d-models/kamikaze-guardian-2e33a2d056d64e8ca259b14f4d05f77f",
      "title": "Kamikaze Guardian"
    },
    "generator": "Sketchfab-12.68.0",
    "version": "2.0"
  },
  "bufferViews": [
    {
      "buffer": 0,
      "byteLength": 29400,
      "name": "floatBufferViews",
      "target": 34963
    },
    {
      "buffer": 0,
      "byteLength": 26432,
      "byteOffset": 29400,
      "byteStride": 8,
      "name": "floatBufferViews",
      "target": 34962
    },
    {
      "buffer": 0,
      "byteLength": 79296,
      "byteOffset": 55832,
      "byteStride": 12,
      "name": "floatBufferViews",
      "target": 34962
    },
    {
      "buffer": 0,
      "byteLength": 52864,
      "byteOffset": 135128,
      "byteStride": 16,
      "name": "floatBufferViews",
      "target": 34962
    },
    {
      "buffer": 0,
      "byteLength": 324,
      "byteOffset": 187992,
      "name": "floatBufferViews"
    },
    {
      "buffer": 0,
      "byteLength": 972,
      "byteOffset": 188316,
      "name": "floatBufferViews"
    }
  ],
  "buffers": [
    {
      "byteLength": 189288,
      "uri": "scene.bin"
    }
  ],
  "images": [
    {
      "uri": "textures/Kamikaze_Body_baseColor.png"
    },
    {
      "uri": "textures/Kamikaze_Body_metallicRoughness.png"
    },
    {
      "uri": "textures/Kamikaze_Body_emissive.png"
    },
    {
      "uri": "textures/Kamikaze_Body_normal.png"
    },
    {
      "uri": "textures/Kamikaze_Rocks_baseColor.png"
    },
    {
      "uri": "textures/Kamikaze_Rocks_metallicRoughness.png"
    },
    {
      "uri": "textures/Kamikaze_Rocks_normal.png"
    }
  ],
  "materials": [
    {
      "doubleSided": true,
      "emissiveFactor": [
        1.0,
        1.0,
        1.0
      ],
      "emissiveTexture": {
        "index": 2
      },
      "name": "Kamikaze_Body",
      "normalTexture": {
        "index": 3
      },
      "occlusionTexture": {
        "index": 1
      },
      "pbrMetallicRoughness": {
        "baseColorTexture": {
          "index": 0
        },
        "metallicRoughnessTexture": {
          "index": 1
        }
      }
    },
    {
      "doubleSided": true,
      "name": "Kamikaze_Rocks",
      "normalTexture": {
        "index": 6
      },
      "occlusionTexture": {
        "index": 5
      },
      "pbrMetallicRoughness": {
        "baseColorTexture": {
          "index": 4
        },
        "metallicRoughnessTexture": {
          "index": 5
        }
      }
    }
  ],
  "meshes": [
    {
      "name": "Body_Kamikaze_Body_0",
      "primitives": [
        {
          "attributes": {
            "NORMAL": 1,
            "POSITION": 0,
            "TANGENT": 2,
            "TEXCOORD_0": 3
          },
          "indices": 4,
          "material": 0,
          "mode": 4
        }
      ]
    },
    {
      "name": "Rocks_Kamikaze_Rocks_0",
      "primitives": [
        {
          "attributes": {
            "NORMAL": 6,
            "POSITION": 5,
            "TANGENT": 7,
            "TEXCOORD_0": 8
          },
          "indices": 9,
          "material": 1,
          "mode": 4
        }
      ]
    }
  ],
  "nodes": [
    {
      "children": [
        1
      ],
      "matrix": [
        1.0,
        0.0,
        0.0,
        0.0,
        0.0,
        2.220446049250313e-16,
        -1.0,
        0.0,
        0.0,
        1.0,
        2.220446049250313e-16,
        0.0,
        0.0,
        0.0,
        0.0,
        1.0
      ],
      "name": "Sketchfab_model"
    },
    {
      "children": [
        2
      ],
      "matrix": [
        1.0,
        0.0,
        0.0,
        0.0,
        0.0,
        0.0,
        1.0,
        0.0,
        0.0,
        -1.0,
        0.0,
        0.0,
        0.0,
        0.0,
        0.0,
        1.0
      ],
      "name": "6ca7ee0577e34771bb86c5b88da146e0.fbx"
    },
    {
      "children": [
        3
      ],
      "name": "Object_2"
    },
    {
      "children": [
        4
      ],
      "name": "RootNode"
    },
    {
      "children": [
        5,
        6
      ],
      "name": "Body",
      "rotation": [
        -0.7071068286895752,
        -0.0,
        0.0,
        0.7071068286895752
      ],
      "translation": [
        -0.125837504863739,
        100.92884063720703,
        1.3968696594238281
      ]
    },
    {
      "mesh": 0,
      "name": "Body_Kamikaze_Body_0"
    },
    {
      "children": [
        7
      ],
      "name": "Rocks",
      "rotation": [
        -8.742277657347586e-08,
        7.64274186065882e-15,
        -8.742277657347586e-08,
        1.0
      ]
    },
    {
      "mesh": 1,
      "name": "Rocks_Kamikaze_Rocks_0"
    }
  ],
  "samplers": [
    {
      "magFilter": 9729,
      "minFilter": 9987,
      "wrapS": 10497,
      "wrapT": 10497
    }
  ],
  "scene": 0,
  "scenes": [
    {
      "name": "Sketchfab_Scene",
      "nodes": [
        0
      ]
    }
  ],
  "textures": [
    {
      "sampler": 0,
      "source": 0
    },
    {
      "sampler": 0,
      "source": 1
    },
    {
      "sampler": 0,
      "source": 2
    },
    {
      "sampler": 0,
      "source": 3
    },
    {
      "sampler": 0,
      "source": 4
    },
    {
      "sampler": 0,
      "source": 5
    },
    {
      "sampler": 0,
      "source": 6
    }
  ]
}
