{
  "accessors": [
    {
      "bufferView": 2,
      "componentType": 5126,
      "count": 485,
      "max": [
        26.466352462768555,
        0.6232321858406067,
        26.49060821533203
      ],
      "min": [
        -26.466352462768555,
        -24.39215850830078,
        -26.489463806152344
      ],
      "type": "VEC3"
    },
    {
      "bufferView": 2,
      "byteOffset": 5820,
      "componentType": 5126,
      "count": 485,
      "max": [
        0.9933163523674011,
        1.0,
        0.9999212622642517
      ],
      "min": [
        -0.9948002696037292,
        -0.9999998211860657,
        -0.9999434351921082
      ],
      "type": "VEC3"
    },
    {
      "bufferView": 3,
      "componentType": 5126,
      "count": 485,
      "max": [
        1.0,
        0.8633647561073303,
        0.8472713232040405,
        1.0
      ],
      "min": [
        -1.0,
        -0.8614713549613953,
        -0.8510985970497131,
        1.0
      ],
      "type": "VEC4"
    },
    {
      "bufferView": 1,
      "componentType": 5126,
      "count": 485,
      "max": [
        0.7053540945053101,
        0.7796750068664551
      ],
      "min": [
        0.0009817066602408886,
        0.07231007516384125
      ],
      "type": "VEC2"
    },
    {
      "bufferView": 0,
      "componentType": 5125,
      "count": 1842,
      "type": "SCALAR"
    },
    {
      "bufferView": 2,
      "byteOffset": 11640,
      "componentType": 5126,
      "count": 640,
      "max": [
        28.94289207458496,
        4.681964874267578,
        29.003726959228516
      ],
      "min": [
        -31.432640075683594,
        -19.553218841552734,
        -27.88226890563965
      ],
      "type": "VEC3"
    },
    {
      "bufferView": 2,
      "byteOffset": 19320,
      "componentType": 5126,
      "count": 640,
      "max": [
        0.9991932511329651,
        0.9978498220443726,
        0.9943996071815491
      ],
      "min": [
        -0.9954036474227905,
        -0.9938672184944153,
        -0.9942883849143982
      ],
      "type": "VEC3"
    },
    {
      "bufferView": 3,
      "byteOffset": 7760,
      "componentType": 5126,
      "count": 640,
      "max": [
        0.9859346747398376,
        0.9996201395988464,
        0.9957057237625122,
        1.0
      ],
      "min": [
        -0.9839887022972107,
        -0.9674959778785706,
        -0.9994280338287354,
        1.0
      ],
      "type": "VEC4"
    },
    {
      "bufferView": 1,
      "byteOffset": 3880,
      "componentType": 5126,
      "count": 640,
      "max": [
        0.8341509103775024,
        0.9601441025733948
      ],
      "min": [
        0.17346005141735077,
        0.09636669605970383
      ],
      "type": "VEC2"
    },
    {
      "bufferView": 0,
      "byteOffset": 7368,
      "componentType": 5125,
      "count": 780,
      "type": "SCALAR"
    },
    {
      "bufferView": 2,
      "byteOffset": 27000,
      "componentType": 5126,
      "count": 703,
      "max": [
        48.457244873046875,
        54.98155975341797,
        48.896663665771484
      ],
      "min": [
        -48.457244873046875,
        0.6232321858406067,
        -48.83498001098633
      ],
      "type": "VEC3"
    },
    {
      "bufferView": 2,
      "byteOffset": 35436,
      "componentType": 5126,
      "count": 703,
      "max": [
        0.9859076738357544,
        0.9994348287582397,
        0.9905136227607727
      ],
      "min": [
        -0.9859076738357544,
        -1.0,
        -0.9837965369224548
      ],
      "type": "VEC3"
    },
    {
      "bufferView": 3,
      "byteOffset": 18000,
      "componentType": 5126,
      "count": 703,
      "max": [
        0.9999893307685852,
        0.9859229326248169,
        0.9780241847038269,
        1.0
      ],
      "min": [
        -0.9999998211860657,
        -0.9855337142944336,
        -0.9785979986190796,
        1.0
      ],
      "type": "VEC4"
    },
    {
      "bufferView": 1,
      "byteOffset": 9000,
      "componentType": 5126,
      "count": 703,
      "max": [
        0.9822672009468079,
        0.9905310273170471
      ],
      "min": [
        0.023877525702118874,
        0.008232486434280872
      ],
      "type": "VEC2"
    },
    {
      "bufferView": 0,
      "byteOffset": 10488,
      "componentType": 5125,
      "count": 2544,
      "type": "SCALAR"
    },
    {
      "bufferView": 2,
      "byteOffset": 43872,
      "componentType": 5126,
      "count": 1489,
      "max": [
        34.48604965209961,
        81.14617156982422,
        30.826419830322266
      ],
      "min": [
        -32.66913986206055,
        6.776270866394043,
        -32.623226165771484
      ],
      "type": "VEC3"
    },
    {
      "bufferView": 2,
      "byteOffset": 61740,
      "componentType": 5126,
      "count": 1489,
      "max": [
        0.9999253749847412,
        0.9761333465576172,
        0.9991784691810608
      ],
      "min": [
        -0.9998313784599304,
        -0.9744201302528381,
        -0.9995906949043274
      ],
      "type": "VEC3"
    },
    {
      "bufferView": 3,
      "byteOffset": 29248,
      "componentType": 5126,
      "count": 1489,
      "max": [
        0.9998146295547485,
        0.9969263076782227,
        0.9999391436576843,
        1.0
      ],
      "min": [
        -0.99995356798172,
        -0.9897199869155884,
        -0.9972259998321533,
        -1.0
      ],
      "type": "VEC4"
    },
    {
      "bufferView": 1,
      "byteOffset": 14624,
      "componentType": 5126,
      "count": 1489,
      "max": [
        0.9925114512443542,
        0.9878585934638977
      ],
      "min": [
        3.1383926568651077e-09,
        0.0
      ],
      "type": "VEC2"
    },
    {
      "bufferView": 0,
      "byteOffset": 20664,
      "componentType": 5125,
      "count": 2064,
      "type": "SCALAR"
    },
    {
      "bufferView": 4,
      "componentType": 5126,
      "count": 201,
      "max": [
        6.666666507720947
      ],
      "min": [
        0.0
      ],
      "type": "SCALAR"
    },
    {
      "bufferView": 5,
      "componentType": 5126,
      "count": 201,
      "max": [
        8.352643508944879e-17,
        1.0,
        8.65528771925435e-17,
        1.0
      ],
      "min": [
        -8.658492547819626e-17,
        -0.8607420325279236,
        -8.658492547819626e-17,
        -0.4954586327075958
      ],
      "type": "VEC4"
    }
  ],
  "animations": [
    {
      "channels": [
        {
          "sampler": 0,
          "target": {
            "node": 8,
            "path": "rotation"
          }
        }
      ],
      "name": "Idle Animation",
      "samplers": [
        {
          "input": 20,
          "interpolation": "LINEAR",
          "output": 21
        }
      ]
    }
  ],
  "asset": {
    "extras": {
      "author": "guillaume.biju-duval (https://sketchfab.com/guillaume.biju-duval)",
      "license": "CC-BY-4.0 (http://creativecommons.org/licenses/by/4.0/)",
      "source": "https://sketchfab.com/3d-models/observer-guardian-470ffaa9cc164223bc208d961334cbef",
      "title": "Observer Guardian"
    },
    "generator": "Sketchfab-12.67.0",
    "version": "2.0"
  },
  "bufferViews": [
    {
      "buffer": 0,
      "byteLength": 28920,
      "name": "floatBufferViews",
      "target": 34963
    },
    {
      "buffer": 0,
      "byteLength": 26536,
      "byteOffset": 28920,
      "byteStride": 8,
      "name": "floatBufferViews",
      "target": 34962
    },
    {
      "buffer": 0,
      "byteLength": 79608,
      "byteOffset": 55456,
      "byteStride": 12,
      "name": "floatBufferViews",
      "target": 34962
    },
    {
      "buffer": 0,
      "byteLength": 53072,
      "byteOffset": 135064,
      "byteStride": 16,
      "name": "floatBufferViews",
      "target": 34962
    },
    {
      "buffer": 0,
      "byteLength": 804,
      "byteOffset": 188136,
      "name": "floatBufferViews"
    },
    {
      "buffer": 0,
      "byteLength": 3216,
      "byteOffset": 188940,
      "name": "floatBufferViews"
    }
  ],
  "buffers": [
    {
      "byteLength": 192156,
      "uri": "scene.bin"
    }
  ],
  "images": [
    {
      "uri": "textures/Rock_Observer_Body_Mat_baseColor.png"
    },
    {
      "uri": "textures/Rock_Observer_Body_Mat_metallicRoughness.png"
    },
    {
      "uri": "textures/Rock_Observer_Body_Mat_emissive.png"
    },
    {
      "uri": "textures/Rock_Observer_Body_Mat_normal.png"
    },
    {
      "uri": "textures/Rock_Observer_Rocks_Mat_baseColor.png"
    },
    {
      "uri": "textures/Rock_Observer_Rocks_Mat_metallicRoughness.png"
    },
    {
      "uri": "textures/Rock_Observer_Rocks_Mat_normal.png"
    }
  ],
  "materials": [
    {
      "doubleSided": true,
      "emissiveFactor": [
        1.0,
        1.0,
        1.0
      ],
      "emissiveTexture": {
        "index": 2
      },
      "name": "Rock_Observer_Body_Mat",
      "normalTexture": {
        "index": 3
      },
      "occlusionTexture": {
        "index": 1
      },
      "pbrMetallicRoughness": {
        "baseColorTexture": {
          "index": 0
        },
        "metallicRoughnessTexture": {
          "index": 1
        }
      }
    },
    {
      "doubleSided": true,
      "name": "Rock_Observer_Rocks_Mat",
      "normalTexture": {
        "index": 6
      },
      "occlusionTexture": {
        "index": 5
      },
      "pbrMetallicRoughness": {
        "baseColorTexture": {
          "index": 4
        },
        "metallicRoughnessTexture": {
          "index": 5
        }
      }
    }
  ],
  "meshes": [
    {
      "name": "Rock_Observer_Body_Front_Rock_Observer_Body_Mat_0",
      "primitives": [
        {
          "attributes": {
            "NORMAL": 1,
            "POSITION": 0,
            "TANGENT": 2,
            "TEXCOORD_0": 3
          },
          "indices": 4,
          "material": 0,
          "mode": 4
        }
      ]
    },
    {
      "name": "Rocks_Observer_Rocks_Front_Rock_Observer_Rocks_Mat_0",
      "primitives": [
        {
          "attributes": {
            "NORMAL": 6,
            "POSITION": 5,
            "TANGENT": 7,
            "TEXCOORD_0": 8
          },
          "indices": 9,
          "material": 1,
          "mode": 4
        }
      ]
    },
    {
      "name": "Rock_Observer_Body_Rear_Rock_Observer_Body_Mat_0",
      "primitives": [
        {
          "attributes": {
            "NORMAL": 11,
            "POSITION": 10,
            "TANGENT": 12,
            "TEXCOORD_0": 13
          },
          "indices": 14,
          "material": 0,
          "mode": 4
        }
      ]
    },
    {
      "name": "Rock_Observer_Rocks_Rear_Rock_Observer_Rocks_Mat_0",
      "primitives": [
        {
          "attributes": {
            "NORMAL": 16,
            "POSITION": 15,
            "TANGENT": 17,
            "TEXCOORD_0": 18
          },
          "indices": 19,
          "material": 1,
          "mode": 4
        }
      ]
    }
  ],
  "nodes": [
    {
      "children": [
        1
      ],
      "matrix": [
        1.0,
        0.0,
        0.0,
        0.0,
        0.0,
        2.220446049250313e-16,
        -1.0,
        0.0,
        0.0,
        1.0,
        2.220446049250313e-16,
        0.0,
        0.0,
        0.0,
        0.0,
        1.0
      ],
      "name": "Sketchfab_model"
    },
    {
      "children": [
        2
      ],
      "matrix": [
        1.0,
        0.0,
        0.0,
        0.0,
        0.0,
        0.0,
        1.0,
        0.0,
        0.0,
        -1.0,
        0.0,
        0.0,
        0.0,
        0.0,
        0.0,
        1.0
      ],
      "name": "87aeefba47c34e7f87670452ffdc6c01.fbx"
    },
    {
      "children": [
        3
      ],
      "name": "Object_2"
    },
    {
      "children": [
        4
      ],
      "name": "RootNode"
    },
    {
      "children": [
        5,
        6,
        8
      ],
      "name": "Rock_Observer_Body_Front",
      "rotation": [
        -0.7071068286895752,
        -0.0,
        0.0,
        0.7071068286895752
      ],
      "translation": [
        -3.486342191696167,
        0.1640479564666748,
        7.113742828369141
      ]
    },
    {
      "mesh": 0,
      "name": "Rock_Observer_Body_Front_Rock_Observer_Body_Mat_0"
    },
    {
      "children": [
        7
      ],
      "name": "Rocks_Observer_Rocks_Front"
    },
    {
      "mesh": 1,
      "name": "Rocks_Observer_Rocks_Front_Rock_Observer_Rocks_Mat_0"
    },
    {
      "children": [
        9,
        10
      ],
      "name": "Rock_Observer_Body_Rear"
    },
    {
      "mesh": 2,
      "name": "Rock_Observer_Body_Rear_Rock_Observer_Body_Mat_0"
    },
    {
      "children": [
        11
      ],
      "name": "Rock_Observer_Rocks_Rear"
    },
    {
      "mesh": 3,
      "name": "Rock_Observer_Rocks_Rear_Rock_Observer_Rocks_Mat_0"
    }
  ],
  "samplers": [
    {
      "magFilter": 9729,
      "minFilter": 9987,
      "wrapS": 10497,
      "wrapT": 10497
    }
  ],
  "scene": 0,
  "scenes": [
    {
      "name": "Sketchfab_Scene",
      "nodes": [
        0
      ]
    }
  ],
  "textures": [
    {
      "sampler": 0,
      "source": 0
    },
    {
      "sampler": 0,
      "source": 1
    },
    {
      "sampler": 0,
      "source": 2
    },
    {
      "sampler": 0,
      "source": 3
    },
    {
      "sampler": 0,
      "source": 4
    },
    {
      "sampler": 0,
      "source": 5
    },
    {
      "sampler": 0,
      "source": 6
    }
  ]
}
